# Blender 3.4.1
# www.blender.org
mtllib Plane_Submesh.mtl
o Plane
v -1.000000 0.000000 1.000000
v 1.000000 0.000000 1.000000
v -1.000000 0.000000 -1.000000
v 1.000000 0.000000 -1.000000
v -1.000000 0.000000 0.000000
v 0.000000 0.000000 1.000000
v 1.000000 0.000000 0.000000
v 0.000000 0.000000 -1.000000
v 0.000000 0.000000 0.000000
vn -0.0000 1.0000 -0.0000
vt 0.000000 0.000000
vt 1.000000 0.000000
vt 0.000000 1.000000
vt 1.000000 1.000000
vt 0.000000 0.500000
vt 0.500000 0.000000
vt 1.000000 0.500000
vt 0.500000 1.000000
vt 0.500000 0.500000
s 0
usemtl r
f 5/5/1 9/9/1 8/8/1 3/3/1
usemtl g
f 9/9/1 7/7/1 4/4/1 8/8/1
usemtl b
f 6/6/1 2/2/1 7/7/1 9/9/1
usemtl a
f 1/1/1 6/6/1 9/9/1 5/5/1
